<?xml version="1.0" standalone="no"?>
<!DOCTYPE svg PUBLIC "-//W3C//DTD SVG 20010904//EN"
 "http://www.w3.org/TR/2001/REC-SVG-20010904/DTD/svg10.dtd">
<svg version="1.0" xmlns="http://www.w3.org/2000/svg"
 width="500.000000pt" height="500.000000pt" viewBox="0 0 500.000000 500.000000"
 preserveAspectRatio="xMidYMid meet">
<metadata>
Created by potrace 1.14, written by Peter Selinger 2001-2017
</metadata>
<g transform="translate(0.000000,500.000000) scale(0.100000,-0.100000)"
fill="#000000" stroke="none">
<path d="M2500 3721 c-14 -5 -166 -110 -195 -134 -5 -4 -64 -47 -130 -94 -66
-48 -163 -117 -215 -155 -52 -38 -106 -76 -119 -86 -68 -48 -62 -10 -62 -407
l1 -360 37 -33 c21 -18 43 -36 48 -40 6 -4 46 -33 90 -65 125 -89 209 -150
241 -174 16 -13 91 -68 167 -124 145 -107 159 -111 202 -71 11 10 46 36 77 57
102 71 493 355 564 410 l31 23 0 372 0 371 -31 22 c-17 12 -35 25 -41 30 -5 4
-41 30 -80 58 -38 27 -77 55 -85 62 -8 7 -51 38 -95 69 -44 32 -138 100 -210
153 -152 111 -175 125 -195 116z m200 -236 c102 -75 236 -171 298 -216 89 -64
109 -83 100 -93 -11 -10 -55 -41 -253 -181 -47 -34 -81 -58 -131 -95 -18 -14
-49 -36 -69 -50 -20 -14 -56 -40 -81 -59 l-45 -35 -32 19 c-18 10 -72 48 -122
84 -49 36 -97 71 -106 76 -10 6 -62 42 -116 81 -54 39 -118 85 -143 102 -25
18 -56 40 -69 50 l-23 19 178 127 c99 70 190 135 203 144 13 9 28 22 35 27 6
6 36 27 66 48 30 20 69 48 85 61 17 14 32 25 35 25 3 0 88 -60 190 -134z m450
-685 c0 -211 -3 -282 -12 -290 -46 -38 -562 -410 -569 -410 -13 0 -8 557 4
574 12 15 152 118 414 302 67 48 128 92 134 100 6 8 15 11 20 8 5 -3 9 -131 9
-284z m-1247 269 c11 -7 26 -16 31 -21 6 -5 36 -26 66 -48 30 -22 83 -60 117
-85 34 -25 64 -45 67 -45 3 0 32 -20 63 -43 32 -24 93 -68 136 -97 42 -29 78
-56 78 -59 4 -15 5 -584 1 -573 -2 6 -8 12 -12 12 -9 0 -411 287 -420 300 -3
4 -9 9 -15 11 -5 2 -40 26 -77 53 l-67 49 1 279 c0 153 3 278 5 278 2 0 14 -5
26 -11z"/>
<path d="M3098 1789 c-24 -13 -23 -51 1 -66 15 -9 23 -8 40 3 25 18 27 37 5
58 -18 19 -23 19 -46 5z"/>
<path d="M1819 1783 c-5 -22 -3 -413 1 -414 3 -1 17 -2 32 -3 l26 -3 4 99 c3
95 4 101 31 124 36 31 71 31 102 -1 23 -22 25 -32 25 -120 0 -79 3 -97 16
-102 9 -3 24 -2 33 4 25 16 24 213 -1 254 -34 55 -125 67 -177 23 -35 -29 -33
-32 -31 74 l1 72 -30 0 c-17 0 -32 -3 -32 -7z"/>
<path d="M886 1762 c-11 -11 -6 -52 7 -54 6 0 37 -2 67 -2 l55 -1 5 -40 c8
-62 -4 -213 -17 -226 -18 -18 -70 -15 -93 6 -24 22 -55 11 -55 -20 0 -50 112
-80 175 -48 52 27 61 67 58 242 l-3 146 -97 1 c-53 1 -99 -1 -102 -4z"/>
<path d="M2321 1755 c-4 -5 -45 -93 -90 -194 -84 -189 -86 -205 -36 -197 17 2
40 35 58 81 2 5 48 10 102 10 l98 1 19 -43 c10 -24 22 -44 26 -44 69 -11 71
-9 43 54 -10 23 -42 96 -71 162 -86 198 -79 185 -112 183 -16 -1 -33 -7 -37
-13z m71 -151 c16 -38 30 -73 31 -79 2 -10 -120 -17 -135 -8 -5 2 1 22 12 44
11 21 18 39 15 39 -4 0 1 10 9 22 9 12 16 31 16 41 0 37 24 10 52 -59z"/>
<path d="M2653 1742 c-19 -3 -23 -10 -23 -37 0 -26 -6 -39 -25 -51 -14 -9 -25
-20 -25 -24 0 -4 11 -12 25 -18 24 -11 25 -15 25 -102 0 -50 4 -99 10 -109 22
-41 129 -53 144 -16 11 30 -5 46 -40 41 -25 -5 -35 -2 -42 12 -7 14 -9 110 -3
159 0 6 16 11 35 11 40 0 56 8 56 27 0 16 -27 26 -57 21 -28 -6 -45 16 -38 46
7 29 -10 46 -42 40z"/>
<path d="M2877 1739 c-12 -7 -16 -20 -15 -41 1 -17 -2 -33 -8 -35 -23 -8 -49
-34 -38 -39 42 -18 47 -30 46 -115 0 -102 16 -136 67 -145 50 -10 86 6 86 36
0 22 -4 25 -37 25 -20 0 -39 2 -41 5 -5 5 -11 119 -8 163 1 14 8 18 34 17 54
-3 59 -1 55 23 -2 18 -10 22 -41 23 -43 1 -56 14 -49 49 5 29 -24 48 -51 34z"/>
<path d="M4013 1672 c-48 -5 -92 -50 -88 -90 4 -45 26 -66 94 -91 63 -23 79
-42 54 -62 -24 -21 -52 -21 -99 0 l-44 20 -11 -21 c-10 -18 -8 -24 12 -39 25
-19 30 -21 94 -24 57 -3 93 13 111 47 17 33 11 79 -13 100 -9 7 -41 22 -72 33
-42 15 -57 25 -59 42 -4 29 24 37 83 22 48 -12 64 -5 65 28 0 10 -33 27 -50
26 -3 0 -14 2 -25 6 -11 4 -34 5 -52 3z"/>
<path d="M1244 1660 c-25 -10 -83 -67 -85 -83 -18 -136 30 -208 139 -213 61
-3 105 13 135 50 88 105 18 257 -118 255 -27 0 -59 -4 -71 -9z m135 -79 c29
-41 33 -67 17 -106 -40 -95 -175 -65 -176 38 0 90 110 137 159 68z"/>
<path d="M1575 1661 c-40 -17 -58 -48 -52 -88 8 -44 34 -67 94 -83 51 -12 76
-46 48 -66 -20 -15 -65 -11 -105 9 -20 11 -31 12 -39 4 -32 -32 3 -62 85 -74
63 -8 132 26 136 70 6 52 -18 82 -85 109 -123 48 -94 93 41 63 30 -7 32 -6 32
19 0 19 -7 29 -26 36 -30 12 -101 12 -129 1z"/>
<path d="M3089 1668 c-5 -8 -4 -298 1 -299 3 -1 17 -3 33 -5 l27 -3 0 155 0
154 -30 0 c-16 0 -31 -1 -31 -2z"/>
<path d="M3292 1650 c-54 -33 -74 -75 -69 -146 7 -97 61 -144 162 -140 52 2
83 14 105 41 11 13 11 19 -3 33 -16 15 -19 15 -46 -1 -43 -25 -95 -22 -126 8
-24 25 -27 34 -27 70 0 30 3 40 20 62 27 36 74 45 117 23 36 -18 37 -18 56 1
16 16 17 22 7 32 -43 41 -142 49 -196 17z"/>
<path d="M3564 1656 c-3 -8 -4 -65 -2 -125 3 -105 4 -112 30 -138 34 -34 108
-41 148 -14 47 33 50 34 47 9 -2 -19 3 -23 28 -23 l30 0 3 153 2 152 -33 0
-34 0 -1 -84 c0 -46 -3 -93 -7 -105 -10 -33 -61 -64 -94 -56 -42 9 -55 43 -55
148 l-1 92 -28 3 c-17 2 -29 -2 -33 -12z"/>
</g>
</svg>
